HIERARCHY
ROOT root
{
	OFFSET 0.000000 0.000000 0.000000
	CHANNELS 6 Xposition Yposition Zposition Zrotation Yrotation Xrotation
	JOINT lhip
	{
		OFFSET 0.058581 -0.082280 -0.017664
		CHANNELS 3 Zrotation Yrotation Xrotation
		JOINT lknee
		{
			OFFSET 0.043451 -0.386469 0.008037
			CHANNELS 3 Zrotation Yrotation Xrotation
			JOINT lankle
			{
				OFFSET -0.014790 -0.426874 -0.037428
				CHANNELS 3 Zrotation Yrotation Xrotation
				JOINT ltoe
				{
					OFFSET 0.041054 -0.060286 0.122042
					CHANNELS 3 Zrotation Yrotation Xrotation
					End Site
					{
						OFFSET 0.000000 0.000000 0.000000
					}
				}
			}
		}
	}
	JOINT rhip
	{
		OFFSET -0.060310 -0.090513 -0.013543
		CHANNELS 3 Zrotation Yrotation Xrotation
		JOINT rknee
		{
			OFFSET -0.043257 -0.383688 -0.004843
			CHANNELS 3 Zrotation Yrotation Xrotation
			JOINT rankle
			{
				OFFSET 0.019056 -0.420046 -0.034562
				CHANNELS 3 Zrotation Yrotation Xrotation
				JOINT rtoe
				{
					OFFSET -0.034840 -0.062106 0.130323
					CHANNELS 3 Zrotation Yrotation Xrotation
					End Site
					{
						OFFSET 0.000000 0.000000 0.000000
					}
				}
			}
		}
	}
	JOINT lowerback
	{
		OFFSET 0.004439 0.124404 -0.038385
		CHANNELS 3 Zrotation Yrotation Xrotation
		JOINT upperback
		{
			OFFSET 0.004488 0.137956 0.026820
			CHANNELS 3 Zrotation Yrotation Xrotation
			JOINT chest
			{
				OFFSET -0.002265 0.056032 0.002855
				CHANNELS 3 Zrotation Yrotation Xrotation
				JOINT lowerneck
				{
					OFFSET -0.013390 0.211636 -0.033468
					CHANNELS 3 Zrotation Yrotation Xrotation
					JOINT upperneck
					{
						OFFSET 0.010113 0.088937 0.050410
						CHANNELS 3 Zrotation Yrotation Xrotation
						End Site
						{
							OFFSET 0.000000 0.000000 0.000000
						}
					}
				}
				JOINT lclavicle
				{
					OFFSET 0.071702 0.114000 -0.018898
					CHANNELS 3 Zrotation Yrotation Xrotation
					JOINT lshoulder
					{
						OFFSET 0.122921 0.045205 -0.019046
						CHANNELS 3 Zrotation Yrotation Xrotation
						JOINT lelbow
						{
							OFFSET 0.255332 -0.015649 -0.022946
							CHANNELS 3 Zrotation Yrotation Xrotation
							JOINT lwrist
							{
								OFFSET 0.265709 0.012698 -0.007375
								CHANNELS 3 Zrotation Yrotation Xrotation
								End Site
								{
									OFFSET 0.000000 0.000000 0.000000
								}
							}
						}
					}
				}
				JOINT rclavicle
				{
					OFFSET -0.082954 0.112472 -0.023707
					CHANNELS 3 Zrotation Yrotation Xrotation
					JOINT rshoulder
					{
						OFFSET -0.113228 0.046853 -0.008472
						CHANNELS 3 Zrotation Yrotation Xrotation
						JOINT relbow
						{
							OFFSET -0.260127 -0.014369 -0.031269
							CHANNELS 3 Zrotation Yrotation Xrotation
							JOINT rwrist
							{
								OFFSET -0.269108 0.006794 -0.006027
								CHANNELS 3 Zrotation Yrotation Xrotation
								End Site
								{
									OFFSET 0.000000 0.000000 0.000000
								}
							}
						}
					}
				}
			}
		}
	}
}
MOTION
Frames: 13
Frame Time: 0.033333
-0.032759 0.484046 1.003797 -165.304778 -2.095591 88.657008 0.881734 -6.410429 -3.134119 -7.500923 -14.499994 8.488183 -0.249752 11.997744 -6.782423 0.000000 -0.000000 0.000000 -8.362781 -10.213290 3.461593 0.101172 -7.063504 8.595385 10.952348 -10.855483 -9.911947 0.000000 -0.000000 0.000000 -5.781035 3.878286 7.433734 1.976330 -3.652840 -8.114955 1.020585 2.668519 4.115515 -3.448385 -4.435733 -3.005726 9.225830 -14.720706 1.080656 0.228879 -0.314641 -12.378917 7.400919 -36.702686 -17.771436 78.683195 -53.448073 -98.584294 13.857618 -6.530970 -66.115933 21.854782 -0.944666 -3.578418 48.906175 -4.554911 22.007457 -7.411802 30.177677 2.010269 13.420652 9.513149 2.152608 
-0.031817 0.484199 1.003849 -165.406281 -2.056799 88.648272 0.980490 -6.183379 -3.072650 -7.455411 -14.559638 8.424542 -0.269627 11.824612 -6.772671 0.000000 -0.000000 0.000000 -8.305798 -10.312514 3.537669 0.126375 -7.040853 8.466509 10.977882 -10.620573 -9.844140 0.000000 -0.000000 0.000000 -5.713586 3.851850 7.418596 1.851601 -3.569358 -8.012773 0.963414 2.707433 4.104620 -3.457782 -4.498567 -3.013886 9.262074 -14.613028 1.076267 -0.049770 -0.270099 -12.481012 6.829898 -36.845502 -17.451936 79.196192 -53.594342 -98.623168 14.055403 -6.321078 -65.515262 21.816927 -0.992792 -3.583594 49.020263 -4.700930 21.899091 -7.356452 30.250063 2.160745 13.112457 9.568938 2.190984 
-0.030538 0.484587 1.004095 -165.692955 -2.014435 88.617915 1.165080 -6.071221 -2.698101 -7.379116 -14.404887 7.840005 -0.257158 11.778073 -6.543223 0.000000 -0.000000 0.000000 -8.165653 -10.153037 3.585280 0.151693 -6.804586 8.358566 10.834665 -10.640317 -9.788929 0.000000 -0.000000 0.000000 -5.807022 3.792553 7.263267 1.899853 -3.424099 -7.694227 1.045795 2.616909 4.042244 -3.533700 -4.888417 -3.014330 9.413765 -14.572454 0.877958 -0.561456 0.149476 -12.412480 5.224146 -36.786186 -16.265191 80.718157 -53.657392 -98.971835 14.908913 -5.570023 -63.852926 21.635843 -0.877508 -3.466100 49.237279 -4.501928 21.753370 -7.177396 29.990299 2.385114 12.928925 9.681656 2.259231 
-0.029780 0.484321 1.004195 -166.076813 -1.938788 88.713852 1.349343 -5.541681 -2.780427 -7.355154 -13.963941 7.838719 -0.434804 11.229534 -6.578028 0.000000 -0.000000 0.000000 -8.026327 -9.887534 3.222692 0.105611 -6.786308 8.661219 10.703068 -10.397494 -9.765578 0.000000 -0.000000 0.000000 -5.692820 3.579697 7.112569 1.866927 -3.174920 -7.544827 1.052681 2.467973 3.827638 -2.992866 -6.710732 -3.156152 9.724795 -15.728555 0.607122 -1.294788 0.644462 -11.538618 2.154480 -35.751001 -14.311839 83.751416 -54.218053 -98.996758 15.539028 -6.674976 -61.644089 21.185455 -0.631359 -3.191160 49.885214 -4.316804 20.959985 -6.856302 29.616698 2.937819 12.867684 9.957150 2.158951 
-0.029296 0.483832 1.004556 -166.583204 -1.850574 88.769750 1.502765 -5.200452 -2.763300 -7.230514 -13.095331 7.709654 -0.811416 10.551365 -6.717677 0.000000 -0.000000 0.000000 -7.883666 -9.356852 2.871527 -0.010885 -7.293735 9.035003 10.573066 -9.797454 -9.729448 0.000000 -0.000000 0.000000 -5.541168 3.190276 6.920539 1.886789 -3.054084 -7.195669 1.057665 2.117667 3.386441 -1.171363 -10.523446 -2.991603 10.392273 -18.229140 -1.061628 -3.064386 1.918959 -9.412398 -1.797938 -33.319568 -11.515492 87.947718 -55.289438 -101.033015 13.548642 -11.324261 -63.005204 21.255435 -0.347083 -2.843978 49.901909 -3.386140 20.369727 -6.158668 28.914751 3.598251 13.265517 10.153240 2.648675 
-0.029020 0.483504 1.004740 -167.553042 -1.829585 88.656025 1.628376 -4.760554 -2.303384 -7.114850 -12.090512 7.202140 -1.377133 9.983646 -6.909605 0.000000 -0.000000 0.000000 -7.872196 -8.591533 2.734048 -0.065726 -7.457664 9.247910 10.401817 -9.483530 -9.723713 0.000000 -0.000000 0.000000 -5.305431 2.382334 7.008651 1.907501 -3.119012 -6.788915 0.993026 1.554702 2.732275 1.310874 -15.482886 -2.836623 10.977639 -20.731173 -3.001711 -6.471120 3.825123 -6.246810 -4.760334 -27.987307 -8.656879 92.916914 -57.365704 -104.464752 10.316835 -17.923704 -67.994847 22.054032 0.282656 -2.192763 49.248484 -1.687654 19.986402 -5.680298 28.475710 3.603359 13.843635 10.667647 3.342228 
-0.028856 0.483235 1.004298 -169.240312 -1.956581 88.508916 1.583278 -4.158256 -1.671731 -7.090630 -11.171671 6.578336 -1.513722 9.884707 -7.031440 0.000000 -0.000000 0.000000 -8.162817 -7.856308 2.532858 0.048530 -7.030068 9.434869 10.102663 -9.055505 -9.811638 0.000000 -0.000000 0.000000 -5.163936 1.426375 6.995995 1.817727 -3.204711 -6.369573 0.984209 1.247062 2.391500 3.920448 -19.261664 -3.013701 11.306726 -21.879135 -4.187187 -9.839552 6.425585 -3.124619 -8.616369 -22.318320 -5.442727 96.251938 -59.898854 -106.704974 8.911388 -21.427742 -71.693997 22.950563 0.693217 -1.610839 48.831137 0.467954 19.857926 -5.421215 28.426137 2.912887 13.656210 11.038755 3.915822 
-0.028550 0.482865 1.003639 -171.468081 -2.041643 88.564719 1.616057 -3.469977 -1.241356 -7.120869 -9.918770 6.082126 -1.419337 9.869311 -7.148462 0.000000 -0.000000 0.000000 -8.373390 -7.376443 1.961457 0.129500 -5.914157 9.632159 9.790666 -8.510737 -9.734527 0.000000 -0.000000 0.000000 -4.951959 0.798864 6.657495 1.794808 -2.948173 -6.217493 0.778831 1.014891 2.672713 6.003757 -20.867367 -3.854614 11.072672 -22.073937 -4.387028 -12.412228 9.479627 -0.926865 -14.117386 -18.438543 -1.815202 94.586719 -62.877736 -104.694079 8.596156 -21.424364 -75.269977 23.632863 -0.101707 -1.569676 48.962166 3.237512 20.068371 -4.984337 28.440205 3.268822 12.787128 11.372797 4.671582 
-0.028206 0.482581 1.003232 -174.129689 -1.791830 88.419952 1.957833 -3.831039 -0.060531 -7.142535 -7.992442 4.776120 -0.069592 10.739683 -6.205840 0.000000 -0.000000 0.000000 -8.254543 -6.002742 1.886248 1.081785 -3.611668 9.047686 6.468487 -10.403974 -8.239092 0.000000 -0.000000 0.000000 -4.454473 0.496592 6.176984 2.243638 -2.259439 -4.677482 0.225561 0.620750 1.810791 6.975829 -19.566698 -4.539499 10.302718 -23.000595 -4.177019 -13.698316 11.582217 -0.179085 -21.837539 -14.599860 1.921020 88.268143 -65.293939 -92.403630 8.567409 -19.393351 -77.461055 23.962213 -0.501325 -0.619090 49.802748 4.878837 21.925780 -6.790181 29.844871 5.219565 12.099636 11.625016 -2.102292 
-0.028314 0.482507 1.003451 -176.512253 -1.724009 88.279164 1.957168 -2.893195 0.700002 -7.061687 -7.299824 4.379856 -0.004865 11.061807 -6.426624 0.000000 -0.000000 0.000000 -8.296854 -5.276739 1.653089 1.115776 -2.693393 9.089088 6.532895 -9.693561 -8.134167 0.000000 -0.000000 0.000000 -4.009055 0.147878 5.912425 2.094904 -1.784368 -4.358062 -0.014243 0.670804 1.881062 7.322551 -19.550716 -4.984796 9.393006 -22.271320 -3.845552 -15.651068 13.373218 0.924771 -27.100090 -11.770107 4.008331 78.533672 -68.303853 -80.487446 8.776977 -18.295104 -72.576298 24.510363 -0.970542 -0.372074 49.840839 5.786028 21.757839 -6.217409 31.382362 6.434994 10.827629 11.995183 -2.667227 
-0.028727 0.482082 1.003411 -178.234272 -1.582725 88.236744 2.026073 -2.543093 1.215319 -7.000711 -6.736659 3.869910 0.188766 11.591322 -6.521685 0.000000 -0.000000 0.000000 -8.283831 -4.995120 1.305135 1.288692 -1.447596 9.124367 6.579463 -9.563100 -8.189548 0.000000 -0.000000 0.000000 -3.533555 -0.221279 5.768340 2.085917 -1.726739 -4.134443 -0.357373 0.735432 2.029870 7.651817 -19.058049 -5.318969 8.869615 -21.322881 -4.305997 -17.806462 14.856369 1.596150 -30.686956 -9.282221 5.736561 63.341678 -71.392487 -66.133768 8.504692 -17.008484 -72.404714 25.354525 -1.755502 -0.669782 49.339091 6.627338 22.206724 -5.373398 32.823454 7.074664 10.299265 11.999458 -2.584748 
-0.028907 0.481557 1.002595 -179.743030 -1.662763 88.363655 1.891917 -2.229969 1.437913 -6.937875 -5.675069 3.688203 0.606827 11.389913 -6.704075 0.000000 -0.000000 0.000000 -8.439340 -4.734665 0.763223 1.284091 -0.879141 9.351202 6.779606 -8.723276 -8.139229 0.000000 -0.000000 0.000000 -3.457203 -0.248922 5.076528 1.973568 -1.405991 -3.850506 -0.749213 0.879678 2.277246 7.831809 -17.884141 -5.819351 8.157666 -20.090303 -3.751509 -19.806574 15.834994 -0.540370 -32.881284 -7.538858 9.460799 38.815789 -71.569534 -41.868507 7.774542 -16.421446 -71.822690 26.226198 -2.696376 -0.637227 49.069043 7.490262 22.916174 -4.875152 33.272591 6.824550 9.722938 11.679838 -2.250195 
-0.029687 0.481302 1.002176 179.005270 -1.511766 88.270553 2.019738 -1.338222 1.752439 -6.936368 -5.067257 3.743557 0.713944 11.066532 -6.952634 0.000000 -0.000000 0.000000 -8.258594 -4.360685 0.386123 1.211199 -0.452958 9.587545 6.853265 -8.102291 -8.117359 0.000000 -0.000000 0.000000 -3.286551 -0.203953 4.984209 1.708163 -1.361586 -3.931047 -0.503742 1.056279 2.226223 7.402119 -15.859950 -6.245629 7.192384 -17.725106 -2.694306 -20.419385 15.306535 -0.084606 -36.620403 -5.670388 10.346308 19.688160 -67.323410 -21.488615 5.993472 -17.499047 -64.820998 26.346885 -2.776966 -0.595745 49.264885 7.500166 22.192050 -4.135176 33.082723 6.995911 10.255720 11.468733 -1.540158 
